# xmcd
#
# Track frame offsets:
#	183
#	15360
#	26720
#	42558
#	58458
#	71518
#	87015
#	102250
#	114158
#	125988
#	144775
#	166300
#	181705
#	192795
#	210550
#	224580
#	243743
#	258668
#	273100
#	286578
#
# Disc length: 3972
#
# Revision: 2
# Processed by: cddbd v1.5.1PL0 Copyright (c) Steve Scherf et al.
# Submitted via: audiograbber 1.80
# Normalized: r1:DSETVAR1
#
DISCID=220f8214
DTITLE=Various Artist - American Roads - Disc Two
DYEAR=1900
DGENRE=
TTITLE0=Kathy Mattea - Eighteen Wheels And A Dozen Roses
TTITLE1=Loretta Lynn and Conway Twitty - Louisianna Woman, Mississippi Man
TTITLE2=Dolly Parton - Tennessee Homesick Blues
TTITLE3=Charley Pride - Roll On Mississippi
TTITLE4=Merle Haggard - Fightin' Side Of Me, The
TTITLE5=Shelly West - Flight 309 To Tennessee
TTITLE6=Waylon Jennings - America
TTITLE7=Larry Gatlin and The Gatlin Brothers - All The Gold In California
TTITLE8=Hank Williams, Jr - Dixie On My Mind
TTITLE9=Michael Martin Murphey - Carolina In The Pines
TTITLE10=Restless Heart - Bluest Eyes In Texas, The
TTITLE11=David Frizzell and Shelly West - You're The Reason God Made Oklahoma
TTITLE12=Johnny Lee and Lane Brody - Yellow Rose, The
TTITLE13=Marie Osmond and Dan Seals - Meet Me In Montana
TTITLE14=Lacy J. Dalton - Tennessee Waltz
TTITLE15=Marty Robbins - El Paso City
TTITLE16=Lee Greenwood - Dixie Road
TTITLE17=John Schneider - County Girls
TTITLE18=Glen Campbell - Southern Nights
TTITLE19=Willie Nelson - On The Road Again
EXTD=
EXTT0=
EXTT1=
EXTT2=
EXTT3=
EXTT4=
EXTT5=
EXTT6=
EXTT7=
EXTT8=
EXTT9=
EXTT10=
EXTT11=
EXTT12=
EXTT13=
EXTT14=
EXTT15=
EXTT16=
EXTT17=
EXTT18=
EXTT19=
PLAYORDER=
